# xmcd
# 
# Track frame offsets:
#     150
#     12090
#     27927
#     41115
#     52025
#     64590
#     77082
#     88062
#     99835
#     113047
# 
# Disc length: 1704
# 
# Revision: 2
# Processed by: cddbd v1.5.2PL0 Copyright (c) Steve Scherf et al.
# Submitted via: fre:ac v1.0.31
# 
DISCID=7406a60a
DTITLE=The Intruders - On The Move
DYEAR=1998
DGENRE=R&B
TTITLE0=Cowboys To Girls
TTITLE1=A Nice Girl Like You
TTITLE2=A Love That's Real
TTITLE3=(Win, Place Or Show) She's A Winner
TTITLE4=Gonna Be Strong
TTITLE5=(Love Is Like A ) Baseball Game
TTITLE6=Slow Drag
TTITLE7=Check Yourself
TTITLE8=Friends No More
TTITLE9=Memories Are Here To Stay
EXTD=YEAR: 1998
EXTT0=
EXTT1=
EXTT2=
EXTT3=
EXTT4=
EXTT5=
EXTT6=
EXTT7=
EXTT8=
EXTT9=
PLAYORDER=
